<svg class="svg-icon" style="width: 1em; height: 1em;vertical-align: middle;fill: currentColor;overflow: hidden;" viewBox="0 0 1024 1024" version="1.1" xmlns="http://www.w3.org/2000/svg"><path d="M512 85.333333C276.266667 85.333333 85.333333 276.266667 85.333333 512c0 235.52 190.933333 426.666667 426.666667 426.666667s426.666667-191.146667 426.666667-426.666667c0-235.733333-190.933333-426.666667-426.666667-426.666667z m-170.666667 661.333334c-58.88 0-106.666667-47.786667-106.666666-106.666667s47.786667-106.666667 106.666666-106.666667 106.666667 47.786667 106.666667 106.666667-47.786667 106.666667-106.666667 106.666667z m64-405.333334c0-58.88 47.786667-106.666667 106.666667-106.666666s106.666667 47.786667 106.666667 106.666666-47.786667 106.666667-106.666667 106.666667-106.666667-47.786667-106.666667-106.666667z m277.333334 405.333334c-58.88 0-106.666667-47.786667-106.666667-106.666667s47.786667-106.666667 106.666667-106.666667 106.666667 47.786667 106.666666 106.666667-47.786667 106.666667-106.666666 106.666667z"  /></svg>