<svg class="svg-icon" style="width: 1em; height: 1em;vertical-align: middle;fill: currentColor;overflow: hidden;" viewBox="0 0 1024 1024" version="1.1" xmlns="http://www.w3.org/2000/svg"><path d="M853.333333 298.666667h-170.666666v-85.333334c0-23.466667-9.386667-44.8-25.173334-60.16A83.413333 83.413333 0 0 0 597.333333 128h-170.666666c-46.933333 0-85.333333 38.4-85.333334 85.333333v85.333334H170.666667c-46.933333 0-85.333333 38.4-85.333334 85.333333v469.333333c0 46.933333 38.4 85.333333 85.333334 85.333334h682.666666c46.933333 0 85.333333-38.4 85.333334-85.333334V384c0-46.933333-38.4-85.333333-85.333334-85.333333z m-426.666666-85.333334h170.666666v85.333334h-170.666666v-85.333334z m42.666666 576l-42.666666-42.666666 128-128-128-128 42.666666-42.666667 170.666667 170.666667-170.666667 170.666666z" fill="#010101" /></svg>